HIERARCHY
ROOT Hips
{
    OFFSET 0.000000 0.000000 0.000000
    CHANNELS 6 Xposition Yposition Zposition Zrotation Yrotation Xrotation
    JOINT Chest
    {
        OFFSET 0.000000 1.634758 -0.000000
        CHANNELS 3 Zrotation Yrotation Xrotation
        JOINT Chest2
        {
            OFFSET 0.000000 2.197341 0.000000
            CHANNELS 3 Zrotation Yrotation Xrotation
            JOINT Neck
            {
                OFFSET 0.000000 0.961544 0.000000
                CHANNELS 3 Zrotation Yrotation Xrotation
                JOINT Head
                {
                    OFFSET 0.000000 0.632542 -0.032565
                    CHANNELS 3 Zrotation Yrotation Xrotation
                    End Site
                    {
                        OFFSET -0.000001 0.439502 2.922845
                    }
                }
            }
            JOINT LeftCollar
            {
                OFFSET 0.167536 0.778237 -0.168280
                CHANNELS 3 Zrotation Yrotation Xrotation
                JOINT LeftShoulder
                {
                    OFFSET 0.831514 -0.002900 0.006458
                    CHANNELS 3 Zrotation Yrotation Xrotation
                    JOINT LeftElbow
                    {
                        OFFSET 2.272872 -0.026639 0.059314
                        CHANNELS 3 Zrotation Yrotation Xrotation
                        JOINT LeftWrist
                        {
                            OFFSET 2.081982 -0.024402 0.054333
                            CHANNELS 3 Zrotation Yrotation Xrotation
                            JOINT LeftHandThumb1
                            {
                                OFFSET 0.218903 -0.128645 0.283837
                                CHANNELS 3 Zrotation Yrotation Xrotation
                                JOINT LeftHandThumb2
                                {
                                    OFFSET 0.137157 -0.025101 0.077902
                                    CHANNELS 3 Zrotation Yrotation Xrotation
                                    JOINT LeftHandThumb3
                                    {
                                        OFFSET 0.144650 -0.031049 -0.107944
                                        CHANNELS 3 Zrotation Yrotation Xrotation
                                        End Site
                                        {
                                            OFFSET 0.223638 0.023433 -0.145854
                                        }
                                    }
                                }
                            }
                            JOINT LeftHandFore1
                            {
                                OFFSET 0.767340 -0.016076 0.196678
                                CHANNELS 3 Zrotation Yrotation Xrotation
                                JOINT LeftHandFore2
                                {
                                    OFFSET 0.012189 -0.216197 -0.010287
                                    CHANNELS 3 Zrotation Yrotation Xrotation
                                    JOINT LeftHandFore3
                                    {
                                        OFFSET -0.123740 0.037045 0.008894
                                        CHANNELS 3 Zrotation Yrotation Xrotation
                                        End Site
                                        {
                                            OFFSET 0.064189 0.182125 0.008784
                                        }
                                    }
                                }
                            }
                            JOINT LeftHandMiddle1
                            {
                                OFFSET 0.709887 -0.008320 0.018526
                                CHANNELS 3 Zrotation Yrotation Xrotation
                                JOINT LeftHandMiddle2
                                {
                                    OFFSET 0.020215 -0.244140 0.007148
                                    CHANNELS 3 Zrotation Yrotation Xrotation
                                    JOINT LeftHandMiddle3
                                    {
                                        OFFSET -0.144280 0.023769 -0.001266
                                        CHANNELS 3 Zrotation Yrotation Xrotation
                                        End Site
                                        {
                                            OFFSET 0.107424 0.209972 0.001457
                                        }
                                    }
                                }
                            }
                            JOINT LeftHandRing1
                            {
                                OFFSET 0.743817 -0.005823 -0.153668
                                CHANNELS 3 Zrotation Yrotation Xrotation
                                JOINT LeftHandRing2
                                {
                                    OFFSET -0.000881 -0.353054 -0.009257
                                    CHANNELS 3 Zrotation Yrotation Xrotation
                                    JOINT LeftHandRing3
                                    {
                                        OFFSET -0.123099 0.058635 -0.003771
                                        CHANNELS 3 Zrotation Yrotation Xrotation
                                        End Site
                                        {
                                            OFFSET 0.077329 0.091847 0.002005
                                        }
                                    }
                                }
                            }
                            JOINT LeftHandLittle1
                            {
                                OFFSET 0.689408 -0.053302 -0.308304
                                CHANNELS 3 Zrotation Yrotation Xrotation
                                JOINT LeftHandLittle2
                                {
                                    OFFSET 0.012441 -0.194663 -0.002365
                                    CHANNELS 3 Zrotation Yrotation Xrotation
                                    JOINT LeftHandLittle3
                                    {
                                        OFFSET -0.110186 0.034910 -0.033714
                                        CHANNELS 3 Zrotation Yrotation Xrotation
                                        End Site
                                        {
                                            OFFSET 0.045410 0.184353 -0.015514
                                        }
                                    }
                                }
                            }
                        }
                    }
                }
            }
            JOINT RightCollar
            {
                OFFSET -0.167536 0.778237 -0.168280
                CHANNELS 3 Zrotation Yrotation Xrotation
                JOINT RightShoulder
                {
                    OFFSET -0.831514 -0.002900 0.006457
                    CHANNELS 3 Zrotation Yrotation Xrotation
                    JOINT RightElbow
                    {
                        OFFSET -2.272872 -0.026639 0.059313
                        CHANNELS 3 Zrotation Yrotation Xrotation
                        JOINT RightWrist
                        {
                            OFFSET -2.081982 -0.024402 0.054331
                            CHANNELS 3 Zrotation Yrotation Xrotation
                            JOINT RightHandThumb1
                            {
                                OFFSET -0.218911 -0.128571 0.283837
                                CHANNELS 3 Zrotation Yrotation Xrotation
                                JOINT RightHandThumb2
                                {
                                    OFFSET -0.137157 -0.025101 0.077902
                                    CHANNELS 3 Zrotation Yrotation Xrotation
                                    JOINT RightHandThumb3
                                    {
                                        OFFSET -0.066669 -0.169879 -0.015352
                                        CHANNELS 3 Zrotation Yrotation Xrotation
                                        End Site
                                        {
                                            OFFSET -0.066435 -0.256448 0.040711
                                        }
                                    }
                                }
                            }
                            JOINT RightHandFore1
                            {
                                OFFSET -0.767344 -0.015991 0.196679
                                CHANNELS 3 Zrotation Yrotation Xrotation
                                JOINT RightHandFore2
                                {
                                    OFFSET -0.012239 -0.216197 -0.010290
                                    CHANNELS 3 Zrotation Yrotation Xrotation
                                    JOINT RightHandFore3
                                    {
                                        OFFSET 0.123680 0.037745 -0.006370
                                        CHANNELS 3 Zrotation Yrotation Xrotation
                                        End Site
                                        {
                                            OFFSET -0.064172 0.182111 0.009183
                                        }
                                    }
                                }
                            }
                            JOINT RightHandMiddle1
                            {
                                OFFSET -0.709887 -0.008302 0.018525
                                CHANNELS 3 Zrotation Yrotation Xrotation
                                JOINT RightHandMiddle2
                                {
                                    OFFSET -0.020190 -0.244138 0.007149
                                    CHANNELS 3 Zrotation Yrotation Xrotation
                                    JOINT RightHandMiddle3
                                    {
                                        OFFSET 0.143696 0.023471 -0.013602
                                        CHANNELS 3 Zrotation Yrotation Xrotation
                                        End Site
                                        {
                                            OFFSET -0.107581 0.209888 -0.001895
                                        }
                                    }
                                }
                            }
                            JOINT RightHandRing1
                            {
                                OFFSET -0.743819 -0.005785 -0.153669
                                CHANNELS 3 Zrotation Yrotation Xrotation
                                JOINT RightHandRing2
                                {
                                    OFFSET 0.000856 -0.353054 -0.009253
                                    CHANNELS 3 Zrotation Yrotation Xrotation
                                    JOINT RightHandRing3
                                    {
                                        OFFSET 0.121938 0.058977 -0.016052
                                        CHANNELS 3 Zrotation Yrotation Xrotation
                                        End Site
                                        {
                                            OFFSET -0.075942 0.091442 0.017073
                                        }
                                    }
                                }
                            }
                            JOINT RightHandLittle1
                            {
                                OFFSET -0.689403 -0.053298 -0.308303
                                CHANNELS 3 Zrotation Yrotation Xrotation
                                JOINT RightHandLittle2
                                {
                                    OFFSET -0.012447 -0.194666 -0.002365
                                    CHANNELS 3 Zrotation Yrotation Xrotation
                                    JOINT RightHandLittle3
                                    {
                                        OFFSET 0.115357 0.034217 -0.004195
                                        CHANNELS 3 Zrotation Yrotation Xrotation
                                        End Site
                                        {
                                            OFFSET -0.036004 0.183086 0.038363
                                        }
                                    }
                                }
                            }
                        }
                    }
                }
            }
        }
    }
    JOINT LeftHip
    {
        OFFSET 0.685143 0.673822 -0.044491
        CHANNELS 3 Zrotation Yrotation Xrotation
        JOINT LeftKnee
        {
            OFFSET 0.085364 -3.750208 0.017676
            CHANNELS 3 Zrotation Yrotation Xrotation
            JOINT LeftAnkle
            {
                OFFSET 0.094583 -4.155206 0.019585
                CHANNELS 3 Zrotation Yrotation Xrotation
                JOINT LeftToe
                {
                    OFFSET -0.000000 -0.395925 0.621478
                    CHANNELS 3 Zrotation Yrotation Xrotation
                    End Site
                    {
                        OFFSET -0.000000 -0.077878 0.321152
                    }
                }
            }
        }
    }
    JOINT RightHip
    {
        OFFSET -0.685143 0.673822 -0.044492
        CHANNELS 3 Zrotation Yrotation Xrotation
        JOINT RightKnee
        {
            OFFSET -0.085364 -3.750208 0.017677
            CHANNELS 3 Zrotation Yrotation Xrotation
            JOINT RightAnkle
            {
                OFFSET -0.094583 -4.155206 0.019585
                CHANNELS 3 Zrotation Yrotation Xrotation
                JOINT RightToe
                {
                    OFFSET -0.000000 -0.395925 0.621478
                    CHANNELS 3 Zrotation Yrotation Xrotation
                    End Site
                    {
                        OFFSET -0.000000 -0.077878 0.321152
                    }
                }
            }
        }
    }
}
MOTION
Frames: 4
Frame Time: 0.033333
0.531377 8.376835 -0.714949 -180.000000 -0.000011 174.270401 0.000001 0.000000 2.157791 -0.000003 -0.000000 -3.645255 0.000004 -0.000003 6.653545 0.000006 -0.000009 14.811893 -15.266932 5.209130 0.018225 -67.689308 16.962086 -6.984382 0.000002 0.000003 -0.000001 5.412979 -3.143095 -24.122549 -0.000003 -0.000003 0.000002 -0.000002 0.000005 0.000002 0.000002 -0.000004 -0.000005 0.000000 -0.000001 0.000000 0.000005 0.000002 -0.000002 -0.000004 0.000002 -0.000002 0.000000 -0.000001 0.000005 -0.000003 0.000001 -0.000003 -0.000002 -0.000002 0.000002 -0.000001 -0.000000 -0.000010 0.000001 -0.000000 0.000005 0.000001 -0.000001 -0.000002 -0.000002 0.000001 0.000003 -0.000001 0.000001 -0.000005 -0.000001 -0.000002 0.000003 15.277641 -5.061469 0.017688 67.319756 -16.449858 -6.636601 -0.000002 0.000001 0.000000 -5.109864 2.504951 -24.439154 -0.000002 -0.000000 -0.000005 -0.000000 -0.000003 0.000007 0.000002 -0.000001 0.000002 -0.000002 -0.000001 -0.000003 0.000004 0.000001 -0.000005 -0.000000 -0.000002 -0.000002 -0.000003 -0.000001 -0.000002 -0.000000 0.000001 0.000002 -0.000001 -0.000001 -0.000003 -0.000002 -0.000001 -0.000002 -0.000001 0.000002 0.000005 0.000001 0.000002 0.000007 -0.000001 -0.000001 -0.000003 0.000000 -0.000001 0.000003 0.000002 -0.000002 -0.000002 17.360950 17.405067 6.994935 0.006623 0.131235 5.775027 -6.300210 -11.248183 -2.561854 -0.000001 0.000002 -0.000002 -18.064386 -17.567924 5.184886 -0.006198 -0.127014 5.588844 10.054905 16.035027 0.312721 -0.000001 -0.000004 0.000004
0.531377 8.376835 -0.714945 -180.000000 -0.000011 174.270416 0.000001 0.000000 2.157657 -0.000003 -0.000000 -3.645397 0.000039 -0.000005 6.653646 0.000007 -0.000014 14.812070 -15.266965 5.209223 0.018229 -67.689468 16.962387 -6.984569 0.000003 0.000001 -0.000002 5.412786 -3.143098 -24.122534 -0.000000 0.000012 0.000003 0.000000 0.000005 0.000000 -0.000000 -0.000006 0.000000 0.000014 0.000009 -0.000010 -0.000002 0.000001 -0.000002 -0.000003 -0.000002 0.000003 0.000006 0.000007 -0.000015 0.000000 -0.000001 0.000002 -0.000002 0.000002 -0.000005 0.000008 0.000009 -0.000010 0.000001 -0.000001 0.000003 0.000003 -0.000000 -0.000002 0.000006 0.000008 -0.000012 -0.000000 -0.000001 0.000000 0.000002 -0.000002 0.000003 15.277618 -5.061517 0.017692 67.319756 -16.450027 -6.636964 0.000000 0.000001 0.000000 -5.109863 2.504832 -24.439140 0.000001 -0.000003 0.000000 -0.000003 -0.000001 0.000002 0.000005 0.000003 0.000000 0.000002 0.000001 0.000005 0.000003 -0.000000 -0.000005 0.000002 0.000001 0.000002 -0.000004 0.000003 -0.000007 0.000000 -0.000000 0.000005 0.000000 -0.000000 -0.000003 -0.000000 0.000003 0.000000 -0.000001 0.000001 0.000002 0.000000 0.000003 0.000000 0.000003 0.000003 -0.000003 -0.000002 -0.000001 0.000003 0.000000 -0.000002 0.000000 17.361002 17.405293 6.995563 0.006619 0.131205 5.773803 -6.300225 -11.248341 -2.561136 0.000000 -0.000001 -0.000001 -18.064327 -17.567999 5.185670 -0.006194 -0.126978 5.587320 10.055102 16.034834 0.313380 0.000000 0.000003 -0.000001
0.531377 8.376833 -0.714933 -180.000000 -0.000011 174.270416 0.000001 0.000000 2.157264 -0.000003 -0.000000 -3.645792 0.000143 -0.000012 6.653916 0.000007 -0.000027 14.812569 -15.266899 5.209478 0.018231 -67.690132 16.963291 -6.985206 -0.000000 0.000002 0.000000 5.412195 -3.143104 -24.122490 -0.000009 0.000007 0.000009 0.000002 0.000004 0.000005 -0.000003 -0.000005 -0.000002 0.000012 0.000004 -0.000005 -0.000002 -0.000001 0.000002 0.000000 -0.000001 0.000000 -0.000003 0.000004 -0.000017 0.000001 -0.000003 0.000007 -0.000002 0.000003 -0.000002 0.000008 0.000006 -0.000014 0.000002 -0.000001 0.000002 0.000003 -0.000002 0.000002 -0.000003 0.000004 -0.000014 0.000001 -0.000000 0.000000 0.000000 -0.000001 -0.000002 15.277566 -5.061657 0.017694 67.319733 -16.450525 -6.638014 -0.000002 0.000001 0.000001 -5.109862 2.504477 -24.439100 0.000006 0.000003 0.000002 -0.000000 -0.000003 0.000005 0.000003 -0.000000 0.000000 0.000003 0.000003 0.000007 0.000002 0.000001 0.000000 0.000003 -0.000001 -0.000002 -0.000013 0.000003 0.000000 0.000000 0.000001 -0.000003 -0.000003 -0.000002 0.000002 -0.000007 0.000003 0.000005 -0.000002 0.000001 0.000002 0.000005 -0.000001 0.000000 0.000001 0.000003 0.000009 0.000001 -0.000001 -0.000007 -0.000001 -0.000001 -0.000002 17.361172 17.405939 6.996358 0.006618 0.131169 5.772207 -6.300097 -11.248954 -2.559978 -0.000000 0.000001 -0.000004 -18.064154 -17.568207 5.187025 -0.006189 -0.126917 5.584659 10.055448 16.034439 0.314448 -0.000000 0.000003 0.000004
0.531377 8.376831 -0.714914 -180.000000 -0.000011 174.270401 0.000001 0.000000 2.156607 -0.000003 -0.000000 -3.646458 0.000315 -0.000023 6.654377 0.000008 -0.000048 14.813407 -15.266895 5.209916 0.018233 -67.691116 16.964790 -6.986208 0.000000 0.000003 -0.000001 5.411221 -3.143112 -24.122406 -0.000003 0.000008 0.000010 -0.000002 0.000004 0.000009 -0.000001 -0.000006 -0.000003 0.000014 0.000004 0.000005 -0.000002 -0.000001 -0.000003 -0.000000 -0.000001 0.000003 0.000000 0.000004 -0.000009 0.000001 -0.000001 0.000005 0.000000 -0.000001 0.000002 0.000001 0.000005 -0.000009 0.000001 -0.000001 -0.000003 0.000001 -0.000000 0.000005 0.000000 0.000005 -0.000015 -0.000003 0.000002 0.000002 0.000003 -0.000003 -0.000009 15.277475 -5.061894 0.017695 67.319695 -16.451349 -6.639769 0.000002 0.000002 0.000000 -5.109858 2.503888 -24.439045 0.000005 0.000008 -0.000005 0.000000 -0.000004 0.000000 0.000006 -0.000000 0.000007 0.000008 0.000003 0.000003 0.000002 0.000001 0.000000 0.000002 -0.000000 0.000002 0.000001 0.000001 -0.000003 0.000001 0.000001 -0.000005 -0.000002 -0.000001 0.000002 0.000009 0.000003 0.000005 0.000000 -0.000000 0.000000 0.000002 0.000002 0.000002 0.000014 0.000002 0.000007 -0.000001 -0.000003 0.000002 0.000001 -0.000001 0.000000 17.361429 17.407017 6.998355 0.006605 0.131080 5.768279 -6.299980 -11.249884 -2.557454 -0.000000 -0.000002 -0.000002 -18.063866 -17.568525 5.189757 -0.006176 -0.126799 5.579331 10.056143 16.033674 0.316653 0.000001 0.000004 0.000004
